<svg role="img" viewBox="0 0 24 24" xmlns="http://www.w3.org/2000/svg" aria-labelledby="title desc">
  <title id="title">Homebridge</title>
  <desc id="desc">Homebridge silhouette mark in the brand purple without an enclosing circle.</desc>
  <g fill="none" stroke="#491F59" stroke-width="1.65" stroke-linecap="round" stroke-linejoin="round">
    <path d="M3.9 11.55 11.38 4.1a.88.88 0 0 1 1.24 0l7.5 7.45"/>
    <path d="M6.35 13.55 11.4 8.6a.88.88 0 0 1 1.22.01l4.98 4.98"/>
    <path d="m8.45 16.2 3.02-3.03a.76.76 0 0 1 1.06 0l3.05 3.03"/>
    <path d="m10.08 19.08 1.9-1.91 1.92 1.91"/>
    <path d="M16.75 8.34V4.95h2.06v5.46"/>
    <path d="M12 19.08v2.12"/>
    <path d="M20.1 11.55h1.35"/>
  </g>
  <g fill="#491F59">
    <circle cx="3.9" cy="11.55" r="1.08"/>
    <circle cx="20.1" cy="11.55" r="1.08"/>
    <circle cx="12" cy="21.2" r="1.08"/>
  </g>
</svg>
